<?xml version="1.0" encoding="UTF-8"?>
<!DOCTYPE svg PUBLIC "-//W3C//DTD SVG 1.1//EN" "http://www.w3.org/Graphics/SVG/1.1/DTD/svg11.dtd">
<svg xmlns="http://www.w3.org/2000/svg" version="1.1" width="2133px" height="2133px" style="shape-rendering:geometricPrecision; text-rendering:geometricPrecision; image-rendering:optimizeQuality; fill-rule:evenodd; clip-rule:evenodd" xmlns:xlink="http://www.w3.org/1999/xlink">
<g><path style="opacity:1" fill="#2466b5" d="M -0.5,-0.5 C 710.5,-0.5 1421.5,-0.5 2132.5,-0.5C 2132.5,710.5 2132.5,1421.5 2132.5,2132.5C 1421.5,2132.5 710.5,2132.5 -0.5,2132.5C -0.5,1421.5 -0.5,710.5 -0.5,-0.5 Z"/></g>
<g><path style="opacity:1" fill="#fefefe" d="M 372.5,248.5 C 788.834,248.167 1205.17,248.5 1621.5,249.5C 1712.33,403.833 1803.17,558.167 1894,712.5C 1896.02,716.191 1897.69,719.858 1899,723.5C 1806.25,880.669 1713.75,1038 1621.5,1195.5C 1460.17,1196.5 1298.83,1196.83 1137.5,1196.5C 1137.5,1427.5 1137.5,1658.5 1137.5,1889.5C 1089.83,1889.5 1042.17,1889.5 994.5,1889.5C 994.5,1658.5 994.5,1427.5 994.5,1196.5C 787.167,1196.5 579.833,1196.5 372.5,1196.5C 372.5,880.5 372.5,564.5 372.5,248.5 Z"/></g>
<g><path style="opacity:1" fill="#2466b5" d="M 1546.5,433.5 C 1561.5,433.5 1576.5,433.5 1591.5,433.5C 1591.67,553.834 1591.5,674.167 1591,794.5C 1578.93,878.229 1530.77,916.062 1446.5,908C 1401.71,899.885 1372.55,874.052 1359,830.5C 1356.82,822.269 1355.15,813.935 1354,805.5C 1353.33,756.833 1353.33,708.167 1354,659.5C 1376.5,686 1399,712.5 1421.5,739C 1413.84,739.5 1406.17,739.666 1398.5,739.5C 1398.33,759.503 1398.5,779.503 1399,799.5C 1405.47,848.28 1433.31,869.78 1482.5,864C 1513.86,859.641 1533.7,842.141 1542,811.5C 1543.72,805.248 1545.05,798.914 1546,792.5C 1546.5,672.834 1546.67,553.167 1546.5,433.5 Z"/></g>
<g><path style="opacity:1" fill="#2466b5" d="M 495.5,471.5 C 573.387,478.837 632.887,515.503 674,581.5C 691.328,613.484 702.661,647.484 708,683.5C 733.01,651.152 760.843,621.319 791.5,594C 895.281,506.498 1008.28,492.831 1130.5,553C 1192.28,585.924 1245.61,629.424 1290.5,683.5C 1268.32,695.759 1245.98,707.759 1223.5,719.5C 1246.01,731.588 1268.68,743.422 1291.5,755C 1249.61,801.255 1201.61,839.588 1147.5,870C 1096.16,898.504 1041.16,913.004 982.5,913.5C 929.653,912.606 880.653,898.44 835.5,871C 796.865,846.726 762.031,817.559 731,783.5C 723.333,774.5 715.667,765.5 708,756.5C 699.67,798.532 682.67,836.532 657,870.5C 626.32,901.271 589.82,922.438 547.5,934C 530.886,939.254 513.886,942.421 496.5,943.5C 494.535,901.596 498.368,860.262 508,819.5C 518.291,788.537 535.791,762.37 560.5,741C 569.848,733.334 579.515,726.167 589.5,719.5C 538.259,676.032 508.759,620.699 501,553.5C 498.019,526.241 496.185,498.908 495.5,471.5 Z"/></g>
<g><path style="opacity:1" fill="#fdfdfe" d="M 1117.5,658.5 C 1138.33,656.822 1152.83,665.489 1161,684.5C 1165.42,705.827 1157.92,721.327 1138.5,731C 1116.39,737.023 1100.22,729.856 1090,709.5C 1084,684.158 1093.17,667.158 1117.5,658.5 Z"/></g>
</svg>
